<svg width="217" height="256" viewBox="0 0 217 256" fill="none" xmlns="http://www.w3.org/2000/svg">
<path fill-rule="evenodd" clip-rule="evenodd" d="M15.216 231.574L217 126.532C216.937 119.16 216.249 111.938 214.986 104.915L-1.30595 217.51C3.7874 222.648 9.31454 227.356 15.216 231.574ZM-15.3421 200.695C-19.1766 195.209 -22.5909 189.408 -25.5384 183.338L200.868 65.4784C204.126 71.3097 206.94 77.423 209.264 83.7723L-15.3421 200.695ZM-37.4122 142.733C-36.5851 149.759 -35.1874 156.61 -33.2667 163.239L188.816 47.6303C184.434 42.1902 179.614 37.1171 174.411 32.4643L-37.4122 142.733ZM-38 118.917C-33.5122 52.491 21.7916 0 89.3554 0C113.472 0 136.026 6.68766 155.265 18.3096L-38 118.917ZM37.2609 244.22L214.715 151.843C203.41 210.773 151.582 255.299 89.3554 255.299C70.7996 255.299 53.1685 251.34 37.2609 244.22Z" fill="#A0388F"/>
</svg>
